<svg width="130" height="143" viewBox="0 0 130 143" fill="none" xmlns="http://www.w3.org/2000/svg">
<path d="M126.115 117.129H98.4345V139.82H126.115V117.129Z" fill="#532322" stroke="white" stroke-width="6" stroke-linejoin="round"/>
<path d="M8.73638 129.346V138.64H4.52191V129.346H3V126.079H4.52191V123.601C4.52191 122.193 4.66833 120.587 5.98528 119.236C6.83399 118.362 8.03396 117.799 9.64375 117.799C10.5802 117.799 11.3411 117.968 12.0437 118.222V121.77C11.5755 121.489 10.9607 121.292 10.4338 121.292C9.79005 121.292 9.38024 121.573 9.20461 121.798C8.73638 122.39 8.73638 123.376 8.73638 123.967V126.079H12.0729V129.346H8.73638V129.346Z" fill="#532322" stroke="white" stroke-width="6" stroke-linejoin="round"/>
<path d="M24.1482 137.034C23.1644 138.161 21.4922 139.062 19.3525 139.062C17.2129 139.062 15.5405 138.161 14.5567 137.034C13.4501 135.767 12.9089 133.964 12.9089 132.359C12.9089 130.754 13.4501 128.952 14.5567 127.684C15.5405 126.557 17.2129 125.656 19.3525 125.656C21.4922 125.656 23.1644 126.557 24.1482 127.684C25.255 128.952 25.796 130.754 25.796 132.359C25.796 133.964 25.255 135.767 24.1482 137.034ZM17.3605 129.993C16.844 130.585 16.549 131.345 16.549 132.359C16.549 133.514 16.9423 134.246 17.3605 134.725C17.8031 135.232 18.4426 135.626 19.3771 135.626C20.1641 135.626 20.8282 135.316 21.3447 134.725C21.861 134.133 22.1562 133.373 22.1562 132.359C22.1562 131.345 21.861 130.585 21.3447 129.993C20.8282 129.402 20.1641 129.092 19.3526 129.092C18.541 129.092 17.8769 129.402 17.3607 129.993H17.3605Z" fill="#532322" stroke="white" stroke-width="6" stroke-linejoin="round"/>
<path d="M31.7971 131.796L27.444 126.079H31.9692L34.0105 128.98L36.0517 126.079H40.5769L36.2239 131.796L41.5852 138.64H37.0107L34.0105 134.585L31.0101 138.64H26.4357L31.7971 131.796Z" fill="#532322" stroke="white" stroke-width="6" stroke-linejoin="round"/>
<path d="M43.0115 126.08H46.5527V127.544C47.4627 125.967 48.7908 125.77 49.627 125.77C50.0944 125.77 50.9551 125.826 51.6929 126.333C52.2585 126.699 52.7259 127.319 53.0209 128.08C53.2915 127.572 53.7095 126.981 54.4228 126.474C55.1852 125.939 55.8984 125.77 56.7592 125.77C58.0873 125.77 59.1693 126.221 59.8334 126.953C60.8908 128.108 60.9648 129.797 60.9648 130.699V138.641H57.4233V132.276C57.4233 131.628 57.4233 130.501 56.9558 129.825C56.6608 129.403 56.1937 129.149 55.6771 129.149C55.0868 129.149 54.5948 129.459 54.2998 129.91C53.8324 130.586 53.7588 131.572 53.7588 132.388V138.641H50.2175V132.107C50.2175 131.262 50.1929 130.276 49.6518 129.656C49.2829 129.234 48.8402 129.149 48.4713 129.149C48.0039 129.149 47.5861 129.29 47.2417 129.656C46.5776 130.389 46.553 131.797 46.553 132.219V138.641H43.0117V126.08L43.0115 126.08Z" fill="#532322" stroke="white" stroke-width="6" stroke-linejoin="round"/>
<path d="M65.7612 118.363C66.9171 118.363 67.8271 119.405 67.8271 120.729C67.8271 122.053 66.9171 123.095 65.7612 123.095C64.6053 123.095 63.6954 122.053 63.6954 120.729C63.6954 119.405 64.6053 118.363 65.7612 118.363ZM67.8271 126.321V138.882L63.9906 138.641V126.08L67.8271 126.321Z" fill="#532322" stroke="white" stroke-width="6" stroke-linejoin="round"/>
<path d="M70.5315 126.079H74.0728V127.571C75.1551 125.994 76.4339 125.741 77.4667 125.741C78.4258 125.741 79.6802 125.938 80.6146 127.008C81.6477 128.191 81.7212 129.684 81.7212 130.698V138.64H78.18V132.19C78.18 131.374 78.1556 130.331 77.5898 129.684C77.3192 129.374 76.8765 129.12 76.2372 129.12C75.4992 129.12 75.0318 129.458 74.7615 129.796C74.171 130.472 74.0728 131.374 74.0728 132.19V138.64H70.5315V126.079Z" fill="#532322" stroke="white" stroke-width="6" stroke-linejoin="round"/>
<path d="M96.4284 138.641H92.8872V137.12C92.3462 138.021 91.3623 139.063 89.4198 139.063C87.7963 139.063 86.6161 138.472 85.6569 137.345C84.5257 136.05 83.9355 134.247 83.9355 132.304C83.9355 130.22 84.5992 128.502 85.6569 127.347C86.6161 126.305 87.9686 125.657 89.469 125.657C90.674 125.657 92.002 126.108 92.8873 127.488V118.109H96.4286V138.641L96.4284 138.641ZM88.4358 129.995C87.9193 130.558 87.575 131.375 87.575 132.389C87.575 133.318 87.9193 134.134 88.4358 134.698C88.9768 135.29 89.6656 135.571 90.2805 135.571C90.9441 135.571 91.7313 135.261 92.297 134.642C92.7152 134.191 93.1086 133.431 93.1086 132.389C93.1086 131.318 92.7396 130.586 92.3214 130.079C91.756 129.403 91.0919 129.15 90.3297 129.15C89.6164 129.15 89.0015 129.375 88.4358 129.995V129.995Z" fill="#532322" stroke="white" stroke-width="6" stroke-linejoin="round"/>
<path d="M110.621 133.064H102.431C102.431 133.739 102.652 134.641 103.095 135.204C103.636 135.88 104.374 135.993 104.915 135.993C105.431 135.993 105.972 135.88 106.341 135.626C106.39 135.598 106.809 135.289 107.104 134.584L110.448 134.979C109.956 136.753 108.973 137.682 108.333 138.133C107.275 138.865 106.095 139.062 104.866 139.062C103.218 139.062 101.767 138.724 100.488 137.26C99.5287 136.161 98.8403 134.5 98.8403 132.416C98.8403 130.613 99.4056 128.754 100.513 127.459C101.84 125.938 103.488 125.656 104.718 125.656C105.948 125.656 107.718 125.91 109.071 127.543C110.374 129.12 110.621 131.092 110.621 132.641V133.063V133.064ZM107.349 130.641C107.325 130.529 107.153 129.74 106.636 129.177C106.243 128.755 105.677 128.473 104.964 128.473C104.054 128.473 103.513 128.895 103.168 129.29C102.898 129.628 102.652 130.078 102.554 130.641H107.349Z" fill="white" stroke="white" stroke-width="6" stroke-linejoin="round"/>
<path d="M124.786 138.641H121.244V137.12C120.703 138.021 119.72 139.063 117.777 139.063C116.154 139.063 114.973 138.472 114.014 137.345C112.883 136.05 112.293 134.247 112.293 132.304C112.293 130.22 112.956 128.502 114.014 127.347C114.973 126.305 116.326 125.657 117.826 125.657C119.031 125.657 120.359 126.108 121.245 127.488V118.109H124.786V138.641L124.786 138.641ZM116.793 129.995C116.277 130.558 115.932 131.375 115.932 132.389C115.932 133.318 116.277 134.134 116.793 134.698C117.334 135.29 118.023 135.571 118.638 135.571C119.301 135.571 120.089 135.261 120.654 134.642C121.073 134.191 121.466 133.431 121.466 132.389C121.466 131.318 121.097 130.586 120.679 130.079C120.113 129.403 119.449 129.15 118.687 129.15C117.974 129.15 117.359 129.375 116.793 129.995V129.995Z" fill="white" stroke="white" stroke-width="6" stroke-linejoin="round"/>
<path d="M23.9299 16.9729C20.6816 21.667 15.876 29.8985 13.5443 41.2006C11.5942 50.6527 12.1102 58.6856 12.869 63.9434C17.963 67.6599 22.1177 68.4104 24.9145 68.4392C31.4384 68.506 38.8361 64.7294 45.9106 64.5583C47.3739 64.523 48.8812 64.5682 48.8812 64.5682C51.9568 64.6607 54.5194 64.9918 56.3768 65.3027C54.7432 64.8415 28.9063 57.1222 23.5781 34.7624C21.9078 27.7531 22.7636 21.4489 23.9299 16.9729Z" fill="#EA9127" stroke="white" stroke-width="6" stroke-linejoin="round"/>
<path d="M13.4008 67.1555C14.5716 72.7075 17.1897 81.2371 23.5463 89.6642C36.9292 107.407 56.7365 111.246 61.9546 112.09C61.0808 107.112 60.3811 99.9873 61.3845 91.5435C62.3926 83.0582 64.7608 76.2683 66.7877 71.6236C57.6386 66.8772 50.4651 66.3792 45.5288 66.8501C36.2446 67.736 29.5534 72.5562 19.7767 69.9004C16.9411 69.1303 14.7658 67.981 13.4009 67.1556L13.4008 67.1555Z" fill="#EA9127" stroke="white" stroke-width="6" stroke-linejoin="round"/>
<path d="M26.9795 93.7775C31.2654 93.6399 37.3039 92.9072 43.9453 90.2261C56.6994 85.0777 63.8672 75.8964 66.7877 71.6241C65.7266 74.0501 64.7337 76.6955 63.8787 79.5593C60.0742 92.3012 60.6377 103.87 61.9546 112.091C53.4482 110.602 41.6985 107.048 31.3249 97.9993C29.7379 96.6149 28.2938 95.1987 26.9795 93.7775Z" fill="#903518" stroke="white" stroke-width="6" stroke-linejoin="round"/>
<path d="M23.9309 16.9729C21.463 20.5369 18.6709 25.3121 16.4227 31.2833C13.0626 40.2077 12.279 48.187 12.1972 53.6522C13.5657 52.2643 14.9453 51.3913 16.1582 50.8252C25.7535 46.3463 37.2658 55.3079 38.1324 56.0012C35.4831 54.0617 25.5903 46.3381 23.1505 32.6912C21.9589 26.0264 22.9843 20.4073 23.931 16.973L23.9309 16.9729Z" fill="#F6D365" stroke="white" stroke-width="6" stroke-linejoin="round"/>
<path d="M13.4009 67.1553C16.1264 70.2456 22.0066 75.9939 31.2737 78.7205C49.4678 84.0734 64.8009 73.0954 66.7876 71.6233C64.2702 75.3946 58.6053 82.7785 48.5738 88.0662C39.6554 92.7672 31.4249 93.6299 26.9794 93.7766C24.424 90.9832 21.25 86.9467 18.4858 81.5786C15.6274 76.0277 14.1767 70.9357 13.4008 67.1553H13.4009Z" fill="#CC5520" stroke="white" stroke-width="6" stroke-linejoin="round"/>
<path d="M58.6033 3C57.5485 4.90629 56.1629 7.96667 55.5923 11.9578C55.1505 15.0494 55.3418 17.6916 55.6312 19.5871C57.5849 18.8799 59.746 18.1923 62.1017 17.5801C64.6642 16.9142 67.0716 16.4378 69.2765 16.0966C68.5676 14.2548 67.3865 11.7819 65.4049 9.22353C63.0193 6.14317 60.4291 4.17301 58.6031 3L58.6033 3Z" fill="#EA9127" stroke="white" stroke-width="6" stroke-linejoin="round"/>
<path d="M105.274 4.64734C103.497 5.60628 100.984 7.22127 98.5298 9.82157C96.0344 12.4652 94.5557 15.1132 93.7025 16.9617C95.8051 17.442 98.0896 18.0616 100.509 18.8663C102.916 19.6667 105.106 20.5337 107.069 21.4035C107.521 19.4515 107.98 16.4342 107.577 12.7858C107.183 9.2262 106.12 6.43879 105.274 4.64734H105.274Z" fill="#EA9127" stroke="white" stroke-width="6" stroke-linejoin="round"/>
<path d="M55.5049 22.2442C55.2083 25.3711 55.0971 29.2284 55.5391 33.6048C56.0099 38.2695 56.9799 42.244 57.9719 45.3721C60.624 39.0961 63.9064 35.1727 66.5499 32.6919C68.961 30.429 71.6297 28.6261 72.7231 25.0297C73.563 22.2673 73.1102 19.6422 72.5584 17.7911C70.3024 18.0252 67.7778 18.4202 65.0579 19.0693C61.3542 19.9531 58.1535 21.1015 55.5049 22.2442Z" fill="#E39334" stroke="white" stroke-width="6" stroke-linejoin="round"/>
<path d="M74.8289 17.5785C75.1845 18.7726 75.6122 20.7493 75.3884 23.1813C75.3033 24.108 75.0953 26.1554 73.9338 28.3518C72.4663 31.1271 70.9113 31.4267 67.3622 35.5202C66.4517 36.5703 65.76 37.4666 65.3351 38.0343C70.5009 40.6269 75.6665 43.2196 80.8322 45.8124C83.3329 44.4849 94.804 38.0722 96.8031 26.1149C97.0917 24.3889 97.2226 22.3097 96.9479 19.922C93.6811 18.9677 89.6351 18.0738 84.9491 17.6567C81.1526 17.3188 77.7381 17.3653 74.8288 17.5787L74.8289 17.5785Z" fill="#F6D365" stroke="white" stroke-width="6" stroke-linejoin="round"/>
<path d="M107.169 23.7574C107.373 25.4919 107.492 27.3692 107.476 29.3719C107.418 36.7364 105.553 42.8432 103.711 47.1932C103.702 46.8468 103.535 42.8276 100.011 40.5349C96.6493 38.3478 93.0967 39.595 92.7169 39.7357C94.1345 38.149 95.9816 35.7017 97.3865 32.3464C99.4405 27.4413 99.5271 23.0372 99.3863 20.5653C101.981 21.6294 104.575 22.6935 107.169 23.7576V23.7574Z" fill="#EA9127" stroke="white" stroke-width="6" stroke-linejoin="round"/>
<path d="M58.564 47.7942C62.1764 54.3705 65.7887 60.9467 69.4012 67.523C71.76 68.4326 75.3665 69.5117 79.8729 69.6989C84.6268 69.8963 88.4857 69.0222 90.9613 68.2564C94.9971 61.9212 99.0331 55.5861 103.069 49.251C101.755 49.6065 100.031 50.005 97.9871 50.2979C96.2634 50.5449 94.152 50.7396 91.3805 50.7272C85.8678 50.7024 85.5801 49.8927 80.4426 49.7216C75.8183 49.5679 75.7953 50.2151 70.5424 49.9575C67.414 49.8041 65.0579 49.4586 62.9454 48.9978C61.1594 48.6081 59.6709 48.163 58.5641 47.7943L58.564 47.7942Z" fill="#F6D365" stroke="white" stroke-width="6" stroke-linejoin="round"/>
<path d="M69.3324 71.5137C72.372 75.1658 75.4118 78.8177 78.4515 82.4697C75.6335 86.4617 72.5373 91.5019 69.7413 97.5934C67.17 103.195 65.4454 108.395 64.2665 112.841C63.0377 105.145 62.4036 94.0281 65.7945 81.5349C66.8001 77.8302 68.0287 74.4864 69.3322 71.5138L69.3324 71.5137Z" fill="#F6D365" stroke="white" stroke-width="6" stroke-linejoin="round"/>
<path d="M88.7146 73.8737C84.8646 77.87 80.2791 83.3819 76.0831 90.5587C71.2565 98.8138 68.5624 106.506 67.0028 112.346C72.7313 113.302 77.4352 113.195 80.6636 112.912C85.9798 112.446 88.1551 111.426 89.7244 110.304C90.3916 109.827 92.446 108.358 93.6041 105.955C96.0939 100.787 92.191 95.9719 90.0201 86.0993C89.4004 83.2812 88.7184 79.1258 88.7145 73.8737H88.7146Z" fill="#903518" stroke="white" stroke-width="6" stroke-linejoin="round"/>
<path d="M78.403 48.3495C77.0772 47.4662 75.2734 46.3117 73.071 45.0387C71.8907 44.3565 70.963 43.8526 69.9514 43.3038C68.4578 42.4939 66.505 41.46 64.175 40.2939C63.8528 40.9395 63.3215 42.22 63.3301 43.9088C63.3377 45.3902 63.7573 46.5351 64.0464 47.1718C65.8461 47.1046 67.8009 47.1118 69.8878 47.2354C73.0522 47.4228 75.9085 47.8415 78.4032 48.3496L78.403 48.3495Z" fill="#532322" stroke="white" stroke-width="6" stroke-linejoin="round"/>
<path d="M82.8846 48.5063C85.4185 47.0634 88.1981 45.6121 91.2226 44.2128C93.4013 43.2046 95.5141 42.3126 97.5423 41.5222C97.8213 42.1888 98.2956 43.5788 98.1039 45.3493C97.954 46.7322 97.4602 47.7713 97.1202 48.3637C95.3243 48.1591 93.355 48.02 91.2352 47.996C88.1378 47.9608 85.3326 48.178 82.8846 48.5063Z" fill="#532322" stroke="white" stroke-width="6" stroke-linejoin="round"/>
<path d="M72.187 70.9661C74.2302 71.4891 76.8575 71.9717 79.9341 72.077C83.0473 72.1835 85.7289 71.8733 87.8173 71.4836C85.0939 74.3894 82.3706 77.2952 79.6472 80.2009C77.1605 77.1227 74.6736 74.0444 72.187 70.9661Z" fill="#532322" stroke="white" stroke-width="6" stroke-linejoin="round"/>
<path d="M82.8279 48.5181C84.2138 47.7326 86.0961 46.7108 88.3844 45.5996C89.6109 45.004 90.5723 44.5681 91.6208 44.0937C93.1687 43.393 95.191 42.5024 97.5988 41.5071C97.8739 42.1741 98.3117 43.4894 98.1815 45.1732C98.0674 46.6504 97.5665 47.762 97.2325 48.3761C95.4422 48.1797 93.4921 48.0463 91.4016 48.0194C88.2319 47.9789 85.3529 48.1909 82.8282 48.5182L82.8279 48.5181Z" fill="#532322" stroke="white" stroke-width="6" stroke-linejoin="round"/>
<path d="M57.9712 45.3719C56.5206 40.4811 55.3357 34.4534 55.2708 27.5425C55.2532 25.683 55.3183 23.9046 55.4444 22.2149C58.0326 21.1205 61.1307 20.0229 64.6945 19.1572C67.5547 18.4623 70.2032 18.041 72.5578 17.7911C72.0697 18.8411 71.2277 20.4544 69.8822 22.1937C65.9879 27.2279 62.1379 27.8101 59.6169 30.7747C57.7438 32.9775 56.1181 37.0676 57.9714 45.372L57.9712 45.3719Z" fill="#CC5520" stroke="white" stroke-width="6" stroke-linejoin="round"/>
<path d="M93.0089 35.2946C90.7667 34.7866 86.942 33.5963 83.183 30.5836C77.3379 25.8991 75.4192 19.8279 74.8281 17.5786C77.8562 17.3564 81.4699 17.3126 85.5158 17.7099C89.9705 18.1473 93.8228 19.0089 96.9472 19.9219C97.1309 21.5448 97.1955 23.6839 96.7823 26.1336C96.0612 30.4095 94.2383 33.5342 93.0089 35.2945V35.2946Z" fill="#CC5520" stroke="white" stroke-width="6" stroke-linejoin="round"/>
<path d="M99.3851 20.5653C101.979 21.6294 104.573 22.6935 107.168 23.7576C107.469 26.3783 107.607 29.558 107.282 33.1412C106.745 39.0557 105.148 43.8449 103.709 47.1933C104.142 46.0231 107.48 36.5737 102.31 30.0179C101.569 29.0787 100.505 28.0103 98.9689 27.0535C99.1025 26.3402 99.2165 25.5727 99.2977 24.7549C99.4506 23.2123 99.4554 21.8028 99.3852 20.5654L99.3851 20.5653Z" fill="#CC5520" stroke="white" stroke-width="6" stroke-linejoin="round"/>
<path d="M93.7025 16.9617C94.5277 15.1759 95.877 12.7705 98.0542 10.3391C100.654 7.43617 103.383 5.66955 105.274 4.64734C106.076 6.34926 106.979 8.74566 107.435 11.7183C108.063 15.8237 107.564 19.2473 107.068 21.4034C106.772 18.4909 104.898 15.9854 102.226 14.9386C99.2937 13.7904 95.8937 14.5907 93.7025 16.9617Z" fill="#CC5520" stroke="white" stroke-width="6" stroke-linejoin="round"/>
<path d="M55.632 19.5871C55.3389 17.668 55.1399 14.9391 55.6261 11.7347C56.2158 7.84792 57.5701 4.86714 58.604 3C60.233 4.04599 62.317 5.62798 64.3415 7.93379C67.0065 10.9692 68.472 14.0102 69.2774 16.0966C67.2514 13.4007 63.7655 12.2967 60.6991 13.3343C58.0014 14.2471 56.0341 16.68 55.6321 19.5871H55.632Z" fill="#CC5520" stroke="white" stroke-width="6" stroke-linejoin="round"/>
<path d="M75.5391 96.3424C70.3457 102.531 68.0463 108.742 67.0028 112.346C69.7737 107.424 77.6043 95.0349 89.6583 93.95C90.4951 93.8747 91.3647 93.8527 92.2667 93.8954C91.6761 92.2369 91.1103 90.4362 90.6036 88.4995C90.3025 87.3488 90.0441 86.2325 89.8218 85.1555C86.4536 86.8085 80.7342 90.1514 75.5391 96.3423V96.3424Z" fill="#CC5520" stroke="white" stroke-width="6" stroke-linejoin="round"/>
<path d="M65.1858 83.9462C63.7988 90.1457 62.8565 97.8055 63.5121 106.484C63.6805 108.711 63.9409 110.833 64.2667 112.842C64.7847 110.982 65.374 109.05 66.0458 107.057C66.9624 104.338 67.9346 101.797 68.9243 99.4391C67.678 94.2746 66.4319 89.1102 65.1858 83.946V83.9462Z" fill="#CC5520" stroke="white" stroke-width="6" stroke-linejoin="round"/>
<path d="M69.4012 67.523C65.7888 60.9467 62.1765 54.3705 58.564 47.7942C60.4048 51.1771 62.5444 53.053 64.0655 54.1115C73.5113 60.6847 87.5831 55.5617 94.8847 52.895C98.5664 51.5504 101.407 50.1382 103.052 49.2682C99.022 55.5976 94.9916 61.927 90.9611 68.2564C88.5349 69.007 84.8006 69.8547 80.2044 69.7103C75.5225 69.5631 71.7908 68.4445 69.4011 67.523H69.4012Z" fill="#EA9127" stroke="white" stroke-width="6" stroke-linejoin="round"/>
<path d="M74.8286 17.5801C75.2343 18.8737 75.7399 21.1132 75.3572 23.8441C75.2299 24.7521 74.9888 26.8336 73.6052 28.9303C72.5214 30.5727 71.684 31.101 69.7109 33.035C68.5716 34.1517 67.0148 35.8027 65.3351 38.0356C67.2301 38.769 69.4487 39.4332 71.9633 39.8466C80.4804 41.2467 87.5815 38.9793 91.4328 37.3699C91.9584 36.6786 92.4839 35.9873 93.0096 35.2959C89.3799 33.2816 84.5459 30.0062 80.0359 24.8311C77.8293 22.2994 76.132 19.8084 74.8288 17.58L74.8286 17.5801Z" fill="#EA9127" stroke="white" stroke-width="6" stroke-linejoin="round"/>
<path d="M75.3968 83.5286C71.1434 86.2029 66.0384 84.2811 65.1853 83.9452C65.1501 85.8509 65.1518 87.8076 65.1969 89.813C65.3256 95.5403 65.7897 100.902 66.4594 105.851C68.2509 100.679 70.7693 94.8487 74.3611 88.7816C75.7037 86.5139 77.0786 84.4119 78.4513 82.4703C78.1836 82.1488 77.916 81.8271 77.6483 81.5055C77.0812 82.2143 76.3458 82.932 75.3968 83.5286Z" fill="#EA9127" stroke="white" stroke-width="6" stroke-linejoin="round"/>
<path d="M67.0028 112.346C68.1852 108.579 70.6809 102.31 76.0226 96.0848C81.0172 90.2642 86.3972 86.9318 89.8218 85.156C89.3872 82.9657 89.033 80.5191 88.8499 77.8478C88.7548 76.4607 88.7141 75.1337 88.7146 73.8737C85.3324 77.3849 81.6049 81.8323 78.0739 87.3167C72.0374 96.6927 68.8066 105.635 67.0028 112.346V112.346Z" fill="#EA9127" stroke="white" stroke-width="6" stroke-linejoin="round"/>
<path d="M58.6385 3C58.0587 3.99643 57.4606 5.18801 56.9359 6.57084C56.0843 8.81432 55.6927 10.8584 55.5118 12.4792C55.5988 11.9995 56.0787 9.62376 58.1349 8.40498C60.4796 7.0153 63.9482 7.67903 66.2427 10.2926C65.1244 8.73862 63.5994 6.93854 61.5581 5.19274C60.5519 4.33197 59.5648 3.60803 58.6384 3L58.6385 3Z" fill="#903518" stroke="white" stroke-width="6" stroke-linejoin="round"/>
<path d="M105.274 4.64734C105.796 5.66482 106.33 6.8991 106.764 8.33881C107.479 10.7079 107.681 12.8246 107.702 14.4347C107.667 14.016 107.407 11.4232 105.314 9.99945C103.063 8.46784 99.5916 8.90142 97.1981 11.3318C98.3327 9.93629 99.8935 8.29931 101.974 6.74878C103.13 5.88705 104.25 5.19836 105.274 4.64734H105.274Z" fill="#903518" stroke="white" stroke-width="6" stroke-linejoin="round"/>
<path d="M90.9607 68.2561C93.9855 63.5062 97.0101 58.7561 100.035 54.0061C97.356 56.9438 91.8778 62.1311 83.3108 65.1723C77.7553 67.1445 72.8061 67.5378 69.4006 67.5227C71.9412 68.4961 75.9705 69.6841 81.018 69.7185C85.1731 69.7469 88.5942 68.9838 90.9607 68.2561Z" fill="#CC5520" stroke="white" stroke-width="6" stroke-linejoin="round"/>
<path d="M126.115 117.129H98.4345V139.82H126.115V117.129Z" fill="#532322"/>
<path d="M8.73638 129.346V138.64H4.52191V129.346H3V126.079H4.52191V123.601C4.52191 122.193 4.66833 120.587 5.98528 119.236C6.83399 118.362 8.03396 117.799 9.64375 117.799C10.5802 117.799 11.3411 117.968 12.0437 118.222V121.77C11.5755 121.489 10.9607 121.292 10.4338 121.292C9.79005 121.292 9.38024 121.573 9.20461 121.798C8.73638 122.39 8.73638 123.376 8.73638 123.967V126.079H12.0729V129.346H8.73638V129.346Z" fill="#532322"/>
<path d="M24.1482 137.034C23.1644 138.161 21.4922 139.062 19.3525 139.062C17.2129 139.062 15.5405 138.161 14.5567 137.034C13.4501 135.767 12.9089 133.964 12.9089 132.359C12.9089 130.754 13.4501 128.952 14.5567 127.684C15.5405 126.557 17.2129 125.656 19.3525 125.656C21.4922 125.656 23.1644 126.557 24.1482 127.684C25.255 128.952 25.796 130.754 25.796 132.359C25.796 133.964 25.255 135.767 24.1482 137.034ZM17.3605 129.993C16.844 130.585 16.549 131.345 16.549 132.359C16.549 133.514 16.9423 134.246 17.3605 134.725C17.8031 135.232 18.4426 135.626 19.3771 135.626C20.1641 135.626 20.8282 135.316 21.3447 134.725C21.861 134.133 22.1562 133.373 22.1562 132.359C22.1562 131.345 21.861 130.585 21.3447 129.993C20.8282 129.402 20.1641 129.092 19.3526 129.092C18.541 129.092 17.8769 129.402 17.3607 129.993H17.3605Z" fill="#532322"/>
<path d="M31.7971 131.796L27.444 126.079H31.9692L34.0105 128.98L36.0517 126.079H40.5769L36.2239 131.796L41.5852 138.64H37.0107L34.0105 134.585L31.0101 138.64H26.4357L31.7971 131.796Z" fill="#532322"/>
<path d="M43.0115 126.08H46.5527V127.544C47.4627 125.967 48.7908 125.77 49.627 125.77C50.0944 125.77 50.9551 125.826 51.6929 126.333C52.2585 126.699 52.7259 127.319 53.0209 128.08C53.2915 127.572 53.7095 126.981 54.4228 126.474C55.1852 125.939 55.8984 125.77 56.7592 125.77C58.0873 125.77 59.1693 126.221 59.8334 126.953C60.8908 128.108 60.9648 129.797 60.9648 130.699V138.641H57.4233V132.276C57.4233 131.628 57.4233 130.501 56.9558 129.825C56.6608 129.403 56.1937 129.149 55.6771 129.149C55.0868 129.149 54.5948 129.459 54.2998 129.91C53.8324 130.586 53.7588 131.572 53.7588 132.388V138.641H50.2175V132.107C50.2175 131.262 50.1929 130.276 49.6518 129.656C49.2829 129.234 48.8402 129.149 48.4713 129.149C48.0039 129.149 47.5861 129.29 47.2417 129.656C46.5776 130.389 46.553 131.797 46.553 132.219V138.641H43.0117V126.08L43.0115 126.08Z" fill="#532322"/>
<path d="M65.7612 118.363C66.9171 118.363 67.8271 119.405 67.8271 120.729C67.8271 122.053 66.9171 123.095 65.7612 123.095C64.6053 123.095 63.6954 122.053 63.6954 120.729C63.6954 119.405 64.6053 118.363 65.7612 118.363ZM67.8271 126.321V138.882L63.9906 138.641V126.08L67.8271 126.321Z" fill="#532322"/>
<path d="M70.5315 126.079H74.0728V127.571C75.1551 125.994 76.4339 125.741 77.4667 125.741C78.4258 125.741 79.6802 125.938 80.6146 127.008C81.6477 128.191 81.7212 129.684 81.7212 130.698V138.64H78.18V132.19C78.18 131.374 78.1556 130.331 77.5898 129.684C77.3192 129.374 76.8765 129.12 76.2372 129.12C75.4992 129.12 75.0318 129.458 74.7615 129.796C74.171 130.472 74.0728 131.374 74.0728 132.19V138.64H70.5315V126.079Z" fill="#532322"/>
<path d="M96.4284 138.641H92.8872V137.12C92.3462 138.021 91.3623 139.063 89.4198 139.063C87.7963 139.063 86.6161 138.472 85.6569 137.345C84.5257 136.05 83.9355 134.247 83.9355 132.304C83.9355 130.22 84.5992 128.502 85.6569 127.347C86.6161 126.305 87.9686 125.657 89.469 125.657C90.674 125.657 92.002 126.108 92.8873 127.488V118.109H96.4286V138.641L96.4284 138.641ZM88.4358 129.995C87.9193 130.558 87.575 131.375 87.575 132.389C87.575 133.318 87.9193 134.134 88.4358 134.698C88.9768 135.29 89.6656 135.571 90.2805 135.571C90.9441 135.571 91.7313 135.261 92.297 134.642C92.7152 134.191 93.1086 133.431 93.1086 132.389C93.1086 131.318 92.7396 130.586 92.3214 130.079C91.756 129.403 91.0919 129.15 90.3297 129.15C89.6164 129.15 89.0015 129.375 88.4358 129.995V129.995Z" fill="#532322"/>
<path d="M110.621 133.064H102.431C102.431 133.739 102.652 134.641 103.095 135.204C103.636 135.88 104.374 135.993 104.915 135.993C105.431 135.993 105.972 135.88 106.341 135.626C106.39 135.598 106.809 135.289 107.104 134.584L110.448 134.979C109.956 136.753 108.973 137.682 108.333 138.133C107.275 138.865 106.095 139.062 104.866 139.062C103.218 139.062 101.767 138.724 100.488 137.26C99.5287 136.161 98.8403 134.5 98.8403 132.416C98.8403 130.613 99.4056 128.754 100.513 127.459C101.84 125.938 103.488 125.656 104.718 125.656C105.948 125.656 107.718 125.91 109.071 127.543C110.374 129.12 110.621 131.092 110.621 132.641V133.063V133.064ZM107.349 130.641C107.325 130.529 107.153 129.74 106.636 129.177C106.243 128.755 105.677 128.473 104.964 128.473C104.054 128.473 103.513 128.895 103.168 129.29C102.898 129.628 102.652 130.078 102.554 130.641H107.349Z" fill="white"/>
<path d="M124.786 138.641H121.244V137.12C120.703 138.021 119.72 139.063 117.777 139.063C116.154 139.063 114.973 138.472 114.014 137.345C112.883 136.05 112.293 134.247 112.293 132.304C112.293 130.22 112.956 128.502 114.014 127.347C114.973 126.305 116.326 125.657 117.826 125.657C119.031 125.657 120.359 126.108 121.245 127.488V118.109H124.786V138.641L124.786 138.641ZM116.793 129.995C116.277 130.558 115.932 131.375 115.932 132.389C115.932 133.318 116.277 134.134 116.793 134.698C117.334 135.29 118.023 135.571 118.638 135.571C119.301 135.571 120.089 135.261 120.654 134.642C121.073 134.191 121.466 133.431 121.466 132.389C121.466 131.318 121.097 130.586 120.679 130.079C120.113 129.403 119.449 129.15 118.687 129.15C117.974 129.15 117.359 129.375 116.793 129.995V129.995Z" fill="white"/>
<path d="M23.9299 16.9729C20.6816 21.667 15.876 29.8985 13.5443 41.2006C11.5942 50.6527 12.1102 58.6856 12.869 63.9434C17.963 67.6599 22.1177 68.4104 24.9145 68.4392C31.4384 68.506 38.8361 64.7294 45.9106 64.5583C47.3739 64.523 48.8812 64.5682 48.8812 64.5682C51.9568 64.6607 54.5194 64.9918 56.3768 65.3027C54.7432 64.8415 28.9063 57.1222 23.5781 34.7624C21.9078 27.7531 22.7636 21.4489 23.9299 16.9729Z" fill="#EA9127"/>
<path d="M13.4008 67.1555C14.5716 72.7075 17.1897 81.2371 23.5463 89.6642C36.9292 107.407 56.7365 111.246 61.9546 112.09C61.0808 107.112 60.3811 99.9873 61.3845 91.5435C62.3926 83.0582 64.7608 76.2683 66.7877 71.6236C57.6386 66.8772 50.4651 66.3792 45.5288 66.8501C36.2446 67.736 29.5534 72.5562 19.7767 69.9004C16.9411 69.1303 14.7658 67.981 13.4009 67.1556L13.4008 67.1555Z" fill="#EA9127"/>
<path d="M26.9795 93.7775C31.2654 93.6399 37.3039 92.9072 43.9453 90.2261C56.6994 85.0777 63.8672 75.8964 66.7877 71.6241C65.7266 74.0501 64.7337 76.6955 63.8787 79.5593C60.0742 92.3012 60.6377 103.87 61.9546 112.091C53.4482 110.602 41.6985 107.048 31.3249 97.9993C29.7379 96.6149 28.2938 95.1987 26.9795 93.7775Z" fill="#903518"/>
<path d="M23.9309 16.9729C21.463 20.5369 18.6709 25.3121 16.4227 31.2833C13.0626 40.2077 12.279 48.187 12.1972 53.6522C13.5657 52.2643 14.9453 51.3913 16.1582 50.8252C25.7535 46.3463 37.2658 55.3079 38.1324 56.0012C35.4831 54.0617 25.5903 46.3381 23.1505 32.6912C21.9589 26.0264 22.9843 20.4073 23.931 16.973L23.9309 16.9729Z" fill="#F6D365"/>
<path d="M13.4009 67.1553C16.1264 70.2456 22.0066 75.9939 31.2737 78.7205C49.4678 84.0734 64.8009 73.0954 66.7876 71.6233C64.2702 75.3946 58.6053 82.7785 48.5738 88.0662C39.6554 92.7672 31.4249 93.6299 26.9794 93.7766C24.424 90.9832 21.25 86.9467 18.4858 81.5786C15.6274 76.0277 14.1767 70.9357 13.4008 67.1553H13.4009Z" fill="#CC5520"/>
<path d="M58.6033 3C57.5485 4.90629 56.1629 7.96667 55.5923 11.9578C55.1505 15.0494 55.3418 17.6916 55.6312 19.5871C57.5849 18.8799 59.746 18.1923 62.1017 17.5801C64.6642 16.9142 67.0716 16.4378 69.2765 16.0966C68.5676 14.2548 67.3865 11.7819 65.4049 9.22353C63.0193 6.14317 60.4291 4.17301 58.6031 3L58.6033 3Z" fill="#EA9127"/>
<path d="M105.274 4.64734C103.497 5.60628 100.984 7.22127 98.5298 9.82157C96.0344 12.4652 94.5557 15.1132 93.7025 16.9617C95.8051 17.442 98.0896 18.0616 100.509 18.8663C102.916 19.6667 105.106 20.5337 107.069 21.4035C107.521 19.4515 107.98 16.4342 107.577 12.7858C107.183 9.2262 106.12 6.43879 105.274 4.64734H105.274Z" fill="#EA9127"/>
<path d="M55.5049 22.2442C55.2083 25.3711 55.0971 29.2284 55.5391 33.6048C56.0099 38.2695 56.9799 42.244 57.9719 45.3721C60.624 39.0961 63.9064 35.1727 66.5499 32.6919C68.961 30.429 71.6297 28.6261 72.7231 25.0297C73.563 22.2673 73.1102 19.6422 72.5584 17.7911C70.3024 18.0252 67.7778 18.4202 65.0579 19.0693C61.3542 19.9531 58.1535 21.1015 55.5049 22.2442Z" fill="#E39334"/>
<path d="M74.8289 17.5785C75.1845 18.7726 75.6122 20.7493 75.3884 23.1813C75.3033 24.108 75.0953 26.1554 73.9338 28.3518C72.4663 31.1271 70.9113 31.4267 67.3622 35.5202C66.4517 36.5703 65.76 37.4666 65.3351 38.0343C70.5009 40.6269 75.6665 43.2196 80.8322 45.8124C83.3329 44.4849 94.804 38.0722 96.8031 26.1149C97.0917 24.3889 97.2226 22.3097 96.9479 19.922C93.6811 18.9677 89.6351 18.0738 84.9491 17.6567C81.1526 17.3188 77.7381 17.3653 74.8288 17.5787L74.8289 17.5785Z" fill="#F6D365"/>
<path d="M107.169 23.7574C107.373 25.4919 107.492 27.3692 107.476 29.3719C107.418 36.7364 105.553 42.8432 103.711 47.1932C103.702 46.8468 103.535 42.8276 100.011 40.5349C96.6493 38.3478 93.0967 39.595 92.7169 39.7357C94.1345 38.149 95.9816 35.7017 97.3865 32.3464C99.4405 27.4413 99.5271 23.0372 99.3863 20.5653C101.981 21.6294 104.575 22.6935 107.169 23.7576V23.7574Z" fill="#EA9127"/>
<path d="M58.564 47.7942C62.1764 54.3705 65.7887 60.9467 69.4012 67.523C71.76 68.4326 75.3665 69.5117 79.8729 69.6989C84.6268 69.8963 88.4857 69.0222 90.9613 68.2564C94.9971 61.9212 99.0331 55.5861 103.069 49.251C101.755 49.6065 100.031 50.005 97.9871 50.2979C96.2634 50.5449 94.152 50.7396 91.3805 50.7272C85.8678 50.7024 85.5801 49.8927 80.4426 49.7216C75.8183 49.5679 75.7953 50.2151 70.5424 49.9575C67.414 49.8041 65.0579 49.4586 62.9454 48.9978C61.1594 48.6081 59.6709 48.163 58.5641 47.7943L58.564 47.7942Z" fill="#F6D365"/>
<path d="M69.3324 71.5137C72.372 75.1658 75.4118 78.8177 78.4515 82.4697C75.6335 86.4617 72.5373 91.5019 69.7413 97.5934C67.17 103.195 65.4454 108.395 64.2665 112.841C63.0377 105.145 62.4036 94.0281 65.7945 81.5349C66.8001 77.8302 68.0287 74.4864 69.3322 71.5138L69.3324 71.5137Z" fill="#F6D365"/>
<path d="M88.7146 73.8737C84.8646 77.87 80.2791 83.3819 76.0831 90.5587C71.2565 98.8138 68.5624 106.506 67.0028 112.346C72.7313 113.302 77.4352 113.195 80.6636 112.912C85.9798 112.446 88.1551 111.426 89.7244 110.304C90.3916 109.827 92.446 108.358 93.6041 105.955C96.0939 100.787 92.191 95.9719 90.0201 86.0993C89.4004 83.2812 88.7184 79.1258 88.7145 73.8737H88.7146Z" fill="#903518"/>
<path d="M78.403 48.3495C77.0772 47.4662 75.2734 46.3117 73.071 45.0387C71.8907 44.3565 70.963 43.8526 69.9514 43.3038C68.4578 42.4939 66.505 41.46 64.175 40.2939C63.8528 40.9395 63.3215 42.22 63.3301 43.9088C63.3377 45.3902 63.7573 46.5351 64.0464 47.1718C65.8461 47.1046 67.8009 47.1118 69.8878 47.2354C73.0522 47.4228 75.9085 47.8415 78.4032 48.3496L78.403 48.3495Z" fill="#532322"/>
<path d="M82.8846 48.5063C85.4185 47.0634 88.1981 45.6121 91.2226 44.2128C93.4013 43.2046 95.5141 42.3126 97.5423 41.5222C97.8213 42.1888 98.2956 43.5788 98.1039 45.3493C97.954 46.7322 97.4602 47.7713 97.1202 48.3637C95.3243 48.1591 93.355 48.02 91.2352 47.996C88.1378 47.9608 85.3326 48.178 82.8846 48.5063Z" fill="#532322"/>
<path d="M72.187 70.9661C74.2302 71.4891 76.8575 71.9717 79.9341 72.077C83.0473 72.1835 85.7289 71.8733 87.8173 71.4836C85.0939 74.3894 82.3706 77.2952 79.6472 80.2009C77.1605 77.1227 74.6736 74.0444 72.187 70.9661Z" fill="#532322"/>
<path d="M82.8279 48.5181C84.2138 47.7326 86.0961 46.7108 88.3844 45.5996C89.6109 45.004 90.5723 44.5681 91.6208 44.0937C93.1687 43.393 95.191 42.5024 97.5988 41.5071C97.8739 42.1741 98.3117 43.4894 98.1815 45.1732C98.0674 46.6504 97.5665 47.762 97.2325 48.3761C95.4422 48.1797 93.4921 48.0463 91.4016 48.0194C88.2319 47.9789 85.3529 48.1909 82.8282 48.5182L82.8279 48.5181Z" fill="#532322"/>
<path d="M57.9712 45.3719C56.5206 40.4811 55.3357 34.4534 55.2708 27.5425C55.2532 25.683 55.3183 23.9046 55.4444 22.2149C58.0326 21.1205 61.1307 20.0229 64.6945 19.1572C67.5547 18.4623 70.2032 18.041 72.5578 17.7911C72.0697 18.8411 71.2277 20.4544 69.8822 22.1937C65.9879 27.2279 62.1379 27.8101 59.6169 30.7747C57.7438 32.9775 56.1181 37.0676 57.9714 45.372L57.9712 45.3719Z" fill="#CC5520"/>
<path d="M93.0089 35.2946C90.7667 34.7866 86.942 33.5963 83.183 30.5836C77.3379 25.8991 75.4192 19.8279 74.8281 17.5786C77.8562 17.3564 81.4699 17.3126 85.5158 17.7099C89.9705 18.1473 93.8228 19.0089 96.9472 19.9219C97.1309 21.5448 97.1955 23.6839 96.7823 26.1336C96.0612 30.4095 94.2383 33.5342 93.0089 35.2945V35.2946Z" fill="#CC5520"/>
<path d="M99.3851 20.5653C101.979 21.6294 104.573 22.6935 107.168 23.7576C107.469 26.3783 107.607 29.558 107.282 33.1412C106.745 39.0557 105.148 43.8449 103.709 47.1933C104.142 46.0231 107.48 36.5737 102.31 30.0179C101.569 29.0787 100.505 28.0103 98.9689 27.0535C99.1025 26.3402 99.2165 25.5727 99.2977 24.7549C99.4506 23.2123 99.4554 21.8028 99.3852 20.5654L99.3851 20.5653Z" fill="#CC5520"/>
<path d="M93.7025 16.9617C94.5277 15.1759 95.877 12.7705 98.0542 10.3391C100.654 7.43617 103.383 5.66955 105.274 4.64734C106.076 6.34926 106.979 8.74566 107.435 11.7183C108.063 15.8237 107.564 19.2473 107.068 21.4034C106.772 18.4909 104.898 15.9854 102.226 14.9386C99.2937 13.7904 95.8937 14.5907 93.7025 16.9617Z" fill="#CC5520"/>
<path d="M55.632 19.5871C55.3389 17.668 55.1399 14.9391 55.6261 11.7347C56.2158 7.84792 57.5701 4.86714 58.604 3C60.233 4.04599 62.317 5.62798 64.3415 7.93379C67.0065 10.9692 68.472 14.0102 69.2774 16.0966C67.2514 13.4007 63.7655 12.2967 60.6991 13.3343C58.0014 14.2471 56.0341 16.68 55.6321 19.5871H55.632Z" fill="#CC5520"/>
<path d="M75.5391 96.3424C70.3457 102.531 68.0463 108.742 67.0028 112.346C69.7737 107.424 77.6043 95.0349 89.6583 93.95C90.4951 93.8747 91.3647 93.8527 92.2667 93.8954C91.6761 92.2369 91.1103 90.4362 90.6036 88.4995C90.3025 87.3488 90.0441 86.2325 89.8218 85.1555C86.4536 86.8085 80.7342 90.1514 75.5391 96.3423V96.3424Z" fill="#CC5520"/>
<path d="M65.1858 83.9462C63.7988 90.1457 62.8565 97.8055 63.5121 106.484C63.6805 108.711 63.9409 110.833 64.2667 112.842C64.7847 110.982 65.374 109.05 66.0458 107.057C66.9624 104.338 67.9346 101.797 68.9243 99.4391C67.678 94.2746 66.4319 89.1102 65.1858 83.946V83.9462Z" fill="#CC5520"/>
<path d="M69.4012 67.523C65.7888 60.9467 62.1765 54.3705 58.564 47.7942C60.4048 51.1771 62.5444 53.053 64.0655 54.1115C73.5113 60.6847 87.5831 55.5617 94.8847 52.895C98.5664 51.5504 101.407 50.1382 103.052 49.2682C99.022 55.5976 94.9916 61.927 90.9611 68.2564C88.5349 69.007 84.8006 69.8547 80.2044 69.7103C75.5225 69.5631 71.7908 68.4445 69.4011 67.523H69.4012Z" fill="#EA9127"/>
<path d="M74.8286 17.5801C75.2343 18.8737 75.7399 21.1132 75.3572 23.8441C75.2299 24.7521 74.9888 26.8336 73.6052 28.9303C72.5214 30.5727 71.684 31.101 69.7109 33.035C68.5716 34.1517 67.0148 35.8027 65.3351 38.0356C67.2301 38.769 69.4487 39.4332 71.9633 39.8466C80.4804 41.2467 87.5815 38.9793 91.4328 37.3699C91.9584 36.6786 92.4839 35.9873 93.0096 35.2959C89.3799 33.2816 84.5459 30.0062 80.0359 24.8311C77.8293 22.2994 76.132 19.8084 74.8288 17.58L74.8286 17.5801Z" fill="#EA9127"/>
<path d="M75.3968 83.5286C71.1434 86.2029 66.0384 84.2811 65.1853 83.9452C65.1501 85.8509 65.1518 87.8076 65.1969 89.813C65.3256 95.5403 65.7897 100.902 66.4594 105.851C68.2509 100.679 70.7693 94.8487 74.3611 88.7816C75.7037 86.5139 77.0786 84.4119 78.4513 82.4703C78.1836 82.1488 77.916 81.8271 77.6483 81.5055C77.0812 82.2143 76.3458 82.932 75.3968 83.5286Z" fill="#EA9127"/>
<path d="M67.0028 112.346C68.1852 108.579 70.6809 102.31 76.0226 96.0848C81.0172 90.2642 86.3972 86.9318 89.8218 85.156C89.3872 82.9657 89.033 80.5191 88.8499 77.8478C88.7548 76.4607 88.7141 75.1337 88.7146 73.8737C85.3324 77.3849 81.6049 81.8323 78.0739 87.3167C72.0374 96.6927 68.8066 105.635 67.0028 112.346V112.346Z" fill="#EA9127"/>
<path d="M58.6385 3C58.0587 3.99643 57.4606 5.18801 56.9359 6.57084C56.0843 8.81432 55.6927 10.8584 55.5118 12.4792C55.5988 11.9995 56.0787 9.62376 58.1349 8.40498C60.4796 7.0153 63.9482 7.67903 66.2427 10.2926C65.1244 8.73862 63.5994 6.93854 61.5581 5.19274C60.5519 4.33197 59.5648 3.60803 58.6384 3L58.6385 3Z" fill="#903518"/>
<path d="M105.274 4.64734C105.796 5.66482 106.33 6.8991 106.764 8.33881C107.479 10.7079 107.681 12.8246 107.702 14.4347C107.667 14.016 107.407 11.4232 105.314 9.99945C103.063 8.46784 99.5916 8.90142 97.1981 11.3318C98.3327 9.93629 99.8935 8.29931 101.974 6.74878C103.13 5.88705 104.25 5.19836 105.274 4.64734H105.274Z" fill="#903518"/>
<path d="M90.9607 68.2561C93.9855 63.5062 97.0101 58.7561 100.035 54.0061C97.356 56.9438 91.8778 62.1311 83.3108 65.1723C77.7553 67.1445 72.8061 67.5378 69.4006 67.5227C71.9412 68.4961 75.9705 69.6841 81.018 69.7185C85.1731 69.7469 88.5942 68.9838 90.9607 68.2561Z" fill="#CC5520"/>
</svg>
